<svg width="103" height="80" viewBox="0 0 103 80" fill="none" xmlns="http://www.w3.org/2000/svg">
<path d="M0.138672 6.37775C0.257497 6.04944 0.388206 5.72704 0.495149 5.39282C1.0281 3.7871 2.06707 2.39538 3.45772 1.42441C4.84837 0.453446 6.5165 -0.0449759 8.21431 0.00318964C9.91213 0.0513552 11.5491 0.643538 12.8819 1.69177C14.2148 2.74 15.1725 4.18836 15.6127 5.82169C15.69 6.11746 15.7731 6.4369 15.8623 6.77112H49.4305C49.781 4.70071 50.7079 2.94677 52.4219 1.65423C56.9848 -1.79153 63.6747 0.50663 64.8986 5.97845C65.062 6.69718 65.3472 6.82732 66.0156 6.83028C69.5269 6.83028 73.0471 6.72084 76.5435 6.96042C84.9891 7.53422 91.9641 14.059 93.0633 22.1928C94.308 31.4476 88.3667 39.9008 79.0329 42.0304C77.5693 42.3493 76.0752 42.509 74.577 42.5065C67.5871 42.5539 60.5971 42.5273 53.6102 42.5273H52.3922C51.8428 43.9635 50.8846 45.209 49.6349 46.1112C48.3852 47.0134 46.8983 47.5331 45.3565 47.6065C43.8146 47.68 42.2848 47.3041 40.9543 46.5248C39.6238 45.7456 38.5504 44.5968 37.8658 43.2194C37.7877 42.9937 37.635 42.8011 37.4326 42.6732C37.2302 42.5453 36.9901 42.4897 36.7518 42.5154C31.7374 42.5391 26.72 42.4918 21.7055 42.545C14.6889 42.6189 8.6347 47.6087 7.34544 54.2991C5.66406 63.0362 12.1519 71.0754 21.3075 71.5604C22.57 71.6285 23.8414 71.5604 25.1693 71.5604C25.2584 71.241 25.3535 70.9423 25.4277 70.6376C25.8678 68.9507 26.8618 67.4587 28.2517 66.3991C29.6416 65.3395 31.3475 64.7731 33.0979 64.7902C36.7043 64.8079 39.871 67.2037 40.6612 70.608C40.8453 71.4096 41.1543 71.6166 41.9742 71.6166C54.3796 71.589 66.786 71.589 79.1933 71.6166C79.8647 71.6166 80.1915 71.4096 80.5895 70.8447C81.2539 69.9312 82.0636 69.1319 82.9868 68.4785C83.5186 68.0999 83.7414 67.8159 83.7384 67.1978C83.6968 60.8879 83.6731 54.5712 83.6671 48.2475C83.6671 47.5702 83.6939 46.887 83.7414 46.2096C83.7421 45.7942 83.8994 45.3941 84.1822 45.0885C84.4649 44.7829 84.8525 44.594 85.2683 44.5592C85.6852 44.5054 86.1066 44.6179 86.4405 44.8723C86.7744 45.1266 86.9938 45.5021 87.0507 45.9168C87.1606 46.5587 87.5082 46.5794 88.0191 46.5794C92.1988 46.5794 96.3785 46.5794 100.558 46.5794C101.423 46.5794 102.243 46.6089 102.7 47.4933C103.134 48.3333 102.721 48.9722 102.245 49.6377C101.494 50.6699 100.79 51.7377 99.9938 52.7344C99.563 53.2757 99.6105 53.6484 100.018 54.1719C100.864 55.2544 101.631 56.3991 102.436 57.5112C102.869 58.1027 103.062 58.7268 102.682 59.416C102.302 60.1051 101.684 60.3033 100.924 60.3033C96.7439 60.3033 92.5642 60.3033 88.3845 60.3033H87.1962C87.1665 60.6375 87.119 60.9155 87.119 61.1906C87.119 63.2314 87.119 65.2752 87.119 67.3161C87.0854 67.5527 87.1351 67.7937 87.2596 67.998C87.3842 68.2023 87.5759 68.3575 87.8023 68.4371C89.9886 69.49 91.1561 71.658 90.8204 73.8704C90.6359 74.9882 90.1047 76.0204 89.3014 76.8225C88.4981 77.6246 87.4628 78.1563 86.3407 78.3432C85.2186 78.53 84.0659 78.3626 83.0442 77.8645C82.0224 77.3663 81.1828 76.5623 80.643 75.5652C80.3459 75.0092 79.9865 74.879 79.3924 74.879C66.7176 74.8948 54.0429 74.8948 41.3682 74.879C41.1142 74.8474 40.857 74.9025 40.6385 75.0351C40.42 75.1678 40.2531 75.3703 40.1651 75.6096C38.7243 78.4579 36.3032 80.0018 33.0504 79.9989C29.7975 79.9959 27.3824 78.4431 25.9506 75.5918C25.8624 75.3515 25.6937 75.1488 25.4729 75.0179C25.2521 74.8869 24.9928 74.8358 24.7385 74.8731C21.7679 74.9382 18.8151 74.8554 15.9336 73.8852C12.0385 72.5807 8.70889 69.9888 6.49765 66.54C4.28641 63.0912 3.32662 58.993 3.77771 54.9261C4.6689 46.9639 11.3796 40.2764 19.6142 39.4512C23.0601 39.1051 26.5595 39.2737 30.0322 39.2353C32.3671 39.2087 34.7021 39.2353 37.0043 39.2353C38.8699 34.1746 41.2226 32.2787 45.3934 32.4325C49.0473 32.5656 51.5842 34.8578 52.8586 39.2353H74.4878C82.4135 39.2353 88.5449 34.1184 89.751 26.517C90.969 18.8032 84.8019 10.9445 76.7812 10.2997C72.958 10.0039 69.0991 10.1459 65.2551 10.1341C65.0935 10.1622 64.9402 10.2256 64.8062 10.3197C64.6721 10.4137 64.5606 10.5362 64.4798 10.6783C62.9944 13.5858 60.5793 15.2036 57.2284 15.1948C53.8775 15.1859 51.5218 13.5798 50.0989 10.6813C49.8375 10.1459 49.5048 10.0897 48.9998 10.0897C38.0658 10.0897 27.1309 10.0897 16.195 10.0897C15.9732 10.0605 15.7479 10.1072 15.5563 10.2222C15.3647 10.3372 15.218 10.5137 15.1404 10.7227C13.566 13.8874 10.5894 15.5053 7.087 15.1593C3.81929 14.828 1.19622 12.5476 0.328793 9.2438C0.281263 9.06929 0.204026 8.89183 0.138672 8.7114V6.37775ZM87.1606 56.9226H97.8549C97.2608 56.1033 96.7973 55.3757 96.2626 54.6895C95.5794 53.8022 95.6002 52.9947 96.2775 52.1251C96.8092 51.4448 97.2816 50.7172 97.849 49.9068H87.1606V56.9226ZM3.546 7.62C3.63285 8.73386 4.13857 9.7741 4.96214 10.5329C5.78572 11.2917 6.8665 11.7132 7.98859 11.7132C9.11068 11.7132 10.1915 11.2917 11.015 10.5329C11.8386 9.7741 12.3443 8.73386 12.4312 7.62C12.3443 6.50613 11.8386 5.46589 11.015 4.70709C10.1915 3.94829 9.11068 3.52679 7.98859 3.52679C6.8665 3.52679 5.78572 3.94829 4.96214 4.70709C4.13857 5.46589 3.63285 6.50613 3.546 7.62ZM37.4885 72.4093C37.5068 71.5315 37.2621 70.6682 36.7855 69.9295C36.309 69.1908 35.6222 68.6102 34.8129 68.2617C34.0035 67.9133 33.1083 67.8127 32.2413 67.973C31.3743 68.1332 30.5749 68.547 29.9451 69.1615C29.3153 69.7759 28.8836 70.5633 28.7051 71.4231C28.5266 72.2829 28.6094 73.1761 28.9429 73.9888C29.2764 74.8016 29.8454 75.497 30.5775 75.9864C31.3097 76.4757 32.1716 76.7369 33.0534 76.7365C34.2176 76.7475 35.3386 76.298 36.1702 75.4866C37.0018 74.6753 37.476 73.5685 37.4885 72.4093ZM44.9478 44.3108C45.7957 44.2846 46.6172 44.0107 47.3098 43.5229C48.0024 43.0352 48.5356 42.3554 48.8429 41.5681C49.1501 40.7808 49.2179 39.9209 49.0378 39.0955C48.8577 38.2702 48.4376 37.5158 47.8299 36.9265C47.2222 36.3371 46.4537 35.9389 45.6203 35.7813C44.7868 35.6238 43.9253 35.7139 43.1429 36.0405C42.3606 36.3671 41.692 36.9156 41.2206 37.6178C40.7492 38.3201 40.4957 39.1449 40.4918 39.9895C40.4969 40.5655 40.6164 41.1347 40.8435 41.6644C41.0706 42.1942 41.4008 42.6739 41.815 43.0759C42.2293 43.4779 42.7194 43.7943 43.2571 44.0067C43.7948 44.2192 44.3694 44.3235 44.9478 44.3137V44.3108ZM61.723 7.66436C61.7468 5.29817 59.7297 3.31944 57.2819 3.29578C56.1141 3.28073 54.9878 3.72645 54.1489 4.53557C53.3101 5.34469 52.827 6.45145 52.8051 7.61408C52.8051 9.93295 54.7747 11.888 57.1839 11.9353C59.5931 11.9827 61.6963 10.0217 61.723 7.66732V7.66436ZM85.396 75.0506C85.6594 75.0617 85.9223 75.0198 86.1689 74.9272C86.4156 74.8345 86.6409 74.6932 86.8312 74.5117C87.0216 74.3302 87.1731 74.1122 87.2767 73.8708C87.3803 73.6295 87.4337 73.3698 87.4339 73.1073C87.4394 72.5755 87.2325 72.0632 86.8587 71.6833C86.4849 71.3033 85.9748 71.0868 85.4406 71.0813C84.9064 71.0758 84.3919 71.2818 84.0103 71.654C83.6287 72.0262 83.4112 72.5341 83.4057 73.0659C83.3988 73.3282 83.4455 73.5891 83.543 73.8328C83.6406 74.0765 83.7869 74.2979 83.973 74.4836C84.1592 74.6692 84.3814 74.8152 84.626 74.9127C84.8706 75.0102 85.1326 75.0571 85.396 75.0506Z" fill="#A5BDDA"/>
</svg>
