<svg width="89" height="89" viewBox="0 0 89 89" fill="none" xmlns="http://www.w3.org/2000/svg">
<path d="M46.2228 0H42.7408C42.5841 0.0659418 42.4214 0.116663 42.255 0.151464C40.2725 0.401062 38.3494 0.998057 36.574 1.91506C29.5873 5.42137 24.8342 14.3717 28.2588 22.7144C29.6273 26.0484 31.3527 29.2343 32.9196 32.4865C33.0502 32.7563 33.2034 33.0087 33.3723 33.3256H20.8507C20.8507 32.0773 20.8647 30.8691 20.8507 29.6696C20.7846 25.2997 17.8753 21.3878 13.6707 19.9968C11.633 19.3364 9.44159 19.3175 7.39278 19.9427C5.34397 20.5679 3.53651 21.8071 2.21469 23.4926C1.0482 24.9881 0.459727 26.7151 0.00357592 28.5118V79.9278C0.0488428 79.9992 0.123707 80.0671 0.134154 80.142C0.776596 84.7799 5.00905 89.0575 11.1253 88.9983C23.3439 88.8816 35.5642 88.9634 47.7846 88.9634C57.8913 88.9634 67.9962 88.9826 78.1029 88.9634C83.9894 88.9391 89.0976 84.2628 89.0001 78.0545C88.8747 70.0948 88.9705 62.1299 88.9688 54.1667C88.9841 53.8764 88.9765 53.5854 88.9461 53.2962C88.9086 52.9468 88.7624 52.6179 88.5282 52.3559C88.294 52.0938 87.9834 51.9119 87.6403 51.8356C86.9265 51.651 86.2632 51.8617 85.8889 52.478C85.638 52.9256 85.5078 53.4308 85.5111 53.9439C85.4849 59.1859 85.4954 64.4262 85.4954 69.6666V70.7634C83.38 68.9928 81.1062 68.1171 78.5312 68.1154C75.9563 68.1136 73.6964 69.0294 71.628 70.7077C71.6124 70.3908 71.5984 70.2237 71.5984 70.0565C71.5984 56.6789 71.6025 43.3013 71.6106 29.9238C71.6152 29.2587 71.7107 28.5974 71.8944 27.9582C72.8328 24.6643 76.1095 22.509 79.4 22.979C82.9082 23.4804 85.4501 26.3025 85.4936 29.8054C85.5285 32.7876 85.5024 35.7699 85.5041 38.7522C85.5041 38.9855 85.5041 39.217 85.5041 39.4486C85.518 40.575 86.2144 41.3393 87.2155 41.348C88.2166 41.3567 88.9566 40.5924 88.9566 39.4799C88.974 36.1216 88.9757 32.7633 88.9496 29.4049C88.9357 28.797 88.8534 28.1925 88.7041 27.603C87.4593 22.401 82.6262 18.9121 77.5093 19.4988C72.079 20.1238 68.1425 24.5233 68.1181 30.0004C68.1181 31.0919 68.1181 32.1853 68.1181 33.3082H55.6018C55.8386 32.8799 56.044 32.5369 56.2216 32.1818C57.5605 29.4903 58.969 26.8318 60.2051 24.095C61.1575 21.9849 61.9078 19.7548 61.8452 17.401C61.6467 10.0976 58.2377 4.77373 51.6705 1.61388C49.987 0.802586 48.0457 0.52229 46.2228 0ZM3.47694 70.6189V30.6288C3.47694 30.2528 3.47695 29.875 3.48913 29.499C3.59292 27.7616 4.34226 26.1257 5.59012 24.9124C6.83797 23.699 8.49424 22.9958 10.2339 22.9407C14.2 22.8554 17.3721 25.9422 17.3721 29.9777C17.3884 43.3553 17.3884 56.7329 17.3721 70.1105C17.3721 70.2672 17.3513 70.4256 17.3373 70.6328C12.7131 67.2692 8.15511 67.2518 3.47694 70.6189ZM68.1077 36.9346V37.6885C68.1077 39.7776 68.085 41.8668 68.1216 43.942C68.1361 44.2103 68.0884 44.4783 67.9821 44.7251C67.8757 44.9719 67.7137 45.1907 67.5087 45.3644C60.7117 51.8199 53.9205 58.2864 47.1351 64.764C45.899 65.9444 45.9025 66.8218 47.1247 67.9865C52.9525 73.5367 58.7815 79.0852 64.6117 84.6319C64.8696 84.849 65.1418 85.0485 65.4265 85.2291L65.2663 85.492H64.4341C61.8225 85.492 59.2214 85.4693 56.6168 85.5076C56.3062 85.5259 55.9954 85.4746 55.7071 85.3575C55.4189 85.2403 55.1604 85.0602 54.9507 84.8304C48.5402 78.3876 42.1186 71.9542 35.6861 65.53C35.4138 65.2342 35.081 65.0005 34.7102 64.8448C34.3395 64.6892 33.9395 64.6153 33.5377 64.6282C29.629 64.6595 25.7204 64.6404 21.8118 64.6404H20.8943V57.687H21.864C28.9291 57.687 35.9925 57.6713 43.0559 57.7061C43.5139 57.7224 43.9702 57.6428 44.3956 57.4726C44.821 57.3023 45.2062 57.045 45.5264 56.7172C52.111 50.4097 58.7322 44.1388 65.3046 37.819C66.1037 37.0495 66.8802 36.5986 68.1077 36.9346ZM50.6294 85.4589C50.316 85.4745 50.1767 85.4867 50.0375 85.4867C36.8381 85.4867 23.6387 85.4867 10.4393 85.4867C8.60636 85.496 6.84437 84.7787 5.53913 83.4918C4.23389 82.2049 3.49176 80.4532 3.4752 78.6204C3.43516 74.7902 6.36358 71.7139 10.159 71.6025C14.0328 71.4894 17.1563 74.3881 17.3669 78.3C17.4331 79.5274 18.0842 80.2708 19.108 80.276C20.1613 80.276 20.849 79.4874 20.849 78.2321C20.849 75.7721 20.849 73.3121 20.849 70.8504V68.1432C21.1136 68.1293 21.2808 68.1136 21.4497 68.1136C25.212 68.1136 28.9744 68.0979 32.7368 68.1362C33.1511 68.1709 33.54 68.3503 33.8354 68.6429C39.2546 74.0294 44.6617 79.4264 50.0566 84.8339C50.2203 85.001 50.3665 85.1734 50.6294 85.4589ZM44.4748 43.949C43.7123 42.8522 43.0298 41.8877 42.3665 40.911C38.6615 35.4513 35.082 29.9185 32.399 23.8652C31.2099 21.1824 30.2889 18.4682 30.7137 15.4041C31.6887 8.38102 38.0069 3.14941 45.2722 3.4889C52.2921 3.81794 58.1838 9.80165 58.3805 16.8003C58.4536 19.3369 57.564 21.628 56.5594 23.8756C53.6101 30.4791 49.644 36.4855 45.5613 42.4204C45.2357 42.8922 44.8962 43.3501 44.4748 43.949V43.949ZM68.1077 49.5775V77.7812C68.1077 78.0406 68.0972 78.3035 68.1077 78.5612C68.1738 79.557 68.8981 80.2725 69.8295 80.2778C70.761 80.283 71.4783 79.5814 71.5706 78.5803C71.6005 78.0616 71.6586 77.545 71.7447 77.0326C72.516 73.3435 76.1983 70.9897 79.9693 71.7609C83.6011 72.5026 86.0368 76.1377 85.3335 79.7694C84.7084 82.9989 81.7765 85.4067 78.2875 85.4833C75.9423 85.5337 73.5971 85.5233 71.252 85.4745C70.7809 85.4491 70.3324 85.265 69.9793 84.9523C63.7115 79.0248 57.4572 73.0829 51.2161 67.1265C50.9429 66.8982 50.6531 66.6904 50.3491 66.505L68.1077 49.5775ZM20.8734 36.8371H21.7213C26.0651 36.8371 30.409 36.8511 34.7529 36.8197C35.3675 36.8197 35.6635 37.06 35.9803 37.5283C38.2065 40.8431 40.4531 44.1446 42.7199 47.4327C43.8794 49.1075 45.0912 49.1023 46.2612 47.4135C48.5506 44.1057 50.8018 40.7735 53.0512 37.4343C53.3402 37.0025 53.624 36.8145 54.1567 36.8232C56.2704 36.8563 58.3857 36.8354 60.4993 36.8389C60.71 36.8389 60.9189 36.8807 61.2097 36.912C61.0356 37.1018 60.9398 37.2114 60.8371 37.3107C55.0731 42.8063 49.3033 48.295 43.5277 53.7768C43.2387 54.0501 42.7129 54.1928 42.2951 54.1946C35.4615 54.219 28.6262 54.212 21.7909 54.212H20.8803L20.8734 36.8371Z" fill="#A5BDDA"/>
<path d="M44.4697 26.0606C46.1886 26.0637 47.8698 25.5567 49.3004 24.6039C50.731 23.6511 51.8467 22.2952 52.5064 20.708C53.166 19.1208 53.3398 17.3735 53.0059 15.6875C52.6719 14.0014 51.8452 12.4523 50.6304 11.2363C49.4156 10.0203 47.8672 9.19203 46.1814 8.8564C44.4956 8.52078 42.7481 8.69286 41.1602 9.35087C39.5722 10.0089 38.2152 11.1232 37.2609 12.5528C36.3066 13.9824 35.798 15.663 35.7993 17.3818C35.8089 19.6791 36.7252 21.8797 38.3489 23.5049C39.9726 25.1302 42.1723 26.0487 44.4697 26.0606ZM39.2744 17.3888C39.2717 16.3573 39.5752 15.3481 40.1465 14.4892C40.7178 13.6303 41.5311 12.9603 42.4836 12.564C43.436 12.1677 44.4846 12.0631 45.4966 12.2632C46.5086 12.4634 47.4384 12.9595 48.1682 13.6885C48.898 14.4176 49.395 15.3468 49.5962 16.3585C49.7974 17.3703 49.6938 18.419 49.2984 19.3718C48.9031 20.3245 48.2339 21.1386 47.3755 21.7107C46.5171 22.2828 45.5082 22.5873 44.4767 22.5856C43.0995 22.5801 41.7803 22.031 40.806 21.0577C39.8318 20.0845 39.2813 18.7659 39.2744 17.3888Z" fill="#A5BDDA"/>
</svg>
