<svg width="97" height="107" viewBox="0 0 97 107" fill="none" xmlns="http://www.w3.org/2000/svg">
<path d="M53.5849 54.7758C53.8469 54.3725 54.1357 53.9873 54.4491 53.6226C59.8268 48.22 65.219 42.8299 70.6255 37.4522C71.654 36.4346 72.8697 35.6043 74.2007 34.5232C74.2007 33.6583 74.2468 32.4273 74.2007 31.2078C74.1373 29.9249 73.3854 29.0629 72.354 28.3249C67.7906 25.096 65.5349 20.6505 65.6184 15.0634C65.7337 7.23624 72.2445 0.501711 80.0605 0.0173786C88.1558 -0.47272 95.3927 5.32197 96.4385 13.2616C97.2682 19.5752 94.998 24.6174 89.8642 28.3306C88.5764 29.2618 87.9081 30.3804 88.0089 31.9631C88.032 32.3206 87.9916 32.6839 88.0089 33.0414C88.1414 35.2987 87.8072 37.4205 86.1795 39.1705C88.8012 41.8141 88.1962 45.0228 87.7295 48.0758C87.3953 50.2784 85.1943 51.7602 82.8953 51.7948C80.5963 51.8294 78.2858 51.841 75.9811 51.7948C75.6299 51.7761 75.2791 51.8381 74.9555 51.976C74.6319 52.1139 74.3441 52.3241 74.1143 52.5905C70.0445 56.7054 65.9555 60.804 61.8473 64.8862C57.163 69.5739 51.9946 70.335 46.1752 67.207C45.8006 67.0052 45.4204 66.8178 44.9047 66.5497V107H10.3712V94.9811C8.59654 94.9811 6.91408 94.9984 5.24603 94.9811C2.24412 94.935 0.0286998 92.7209 0.022938 89.6909C0.00565248 80.4829 -0.0231566 71.2748 0.022938 62.0638C0.0661517 54.5423 5.83662 48.4996 13.5892 47.7155C14.9115 47.58 16.231 47.4272 17.5447 47.234C19.5094 46.9457 20.5927 45.5965 20.7338 43.6246C20.8375 42.1284 20.5869 41.0444 19.1493 40.1651C17.3171 39.0407 16.0984 37.2447 15.1765 35.2958C14.9403 34.7942 14.7156 34.5117 14.0847 34.5289C8.56773 34.6846 5.30941 28.8871 7.66312 24.5309C7.81154 24.141 7.81154 23.7101 7.66312 23.3201C6.15928 18.9957 6.90256 15.1211 10.0024 11.7134C10.2429 11.4116 10.3963 11.0497 10.4461 10.6669C11.5639 4.0506 16.3145 8.10307e-05 23.0126 8.10307e-05C26.4697 8.10307e-05 29.9268 8.10307e-05 33.3666 8.10307e-05C37.5699 8.10307e-05 40.6265 2.57166 41.3179 6.71731C41.346 6.99351 41.4455 7.25763 41.6067 7.48361C41.7678 7.7096 41.9851 7.88964 42.237 8.00598C44.7713 9.39271 46.7042 11.6676 47.6646 14.3936C48.6249 17.1197 48.5449 20.1046 47.4399 22.7752C47.3097 23.0386 47.2476 23.3305 47.2592 23.6241C47.2708 23.9177 47.3557 24.2037 47.5061 24.456C48.0573 25.4914 48.333 26.6513 48.3068 27.8241C48.2805 28.997 47.9532 30.1433 47.3563 31.153C46.7594 32.1627 45.9129 33.0017 44.8983 33.5894C43.8837 34.1771 42.735 34.4937 41.5628 34.5088C40.6841 34.5261 40.2635 34.7971 39.8919 35.587C38.9077 37.6862 37.3482 39.4628 35.3948 40.71C34.6746 41.1712 34.4326 41.6642 34.5305 42.4397C34.5997 43.0797 34.5305 43.7486 34.6573 44.3684C34.9828 45.8099 35.9249 46.7872 37.3653 46.963C43.5247 47.7241 48.8256 50.2842 53.5849 54.7758ZM11.61 57.5376C12.3226 58.2513 12.8858 59.1 13.2667 60.0341C13.6476 60.9682 13.8385 61.9689 13.8283 62.9777C13.8283 67.4722 13.9061 71.9725 13.7908 76.4641C13.7476 78.0699 14.0991 79.2807 15.3638 80.2955C15.9445 80.7777 16.4034 81.39 16.7034 82.0829C17.0059 82.7863 17.4064 82.9103 18.0863 82.9074C25.5248 82.8882 32.9643 82.8834 40.4047 82.893H41.4361V81.6216C41.4361 75.4003 41.4361 69.1779 41.4361 62.9547C41.4099 61.9625 41.5889 60.9756 41.9617 60.0558C42.3345 59.1361 42.8931 58.3033 43.6025 57.6097L45.9937 59.8843C45.7056 60.4379 45.3944 60.9251 45.1553 61.444C44.8327 62.1532 44.8903 62.6981 45.7459 63.0556C46.6015 63.413 47.3938 63.9204 48.2148 64.3731C52.0954 66.4776 55.9126 65.9385 59.0442 62.8163C63.066 58.8052 67.081 54.7863 71.0893 50.7599C71.3054 50.5436 71.4955 50.2986 71.533 50.2553L67.105 45.8214C63.9994 48.9321 60.8304 52.1638 57.598 55.3351C55.9415 56.9524 54.3598 58.5899 53.5301 60.8126C53.4508 60.9461 53.3539 61.0683 53.242 61.1759L50.2488 59.6768C50.6406 58.8753 51.0065 58.12 51.355 57.4021C47.2238 53.539 42.6374 50.9472 36.8756 50.5148C37.3826 55.1073 37.881 59.622 38.4053 64.3529L32.4966 59.6768C32.4866 59.8409 32.4866 60.0056 32.4966 60.1697C33.1448 64.0675 33.8045 67.9537 34.4268 71.8658C34.5075 72.3617 34.5968 73.091 34.326 73.3736C32.1538 75.6568 29.8922 77.8594 27.6797 80.0648C27.5867 80.0318 27.4978 79.9883 27.4147 79.9351C26.0635 78.5917 24.8535 77.0522 23.3382 75.9394C20.8375 74.0943 20.4573 71.9263 21.2178 69.0492C21.9928 66.048 22.2895 62.9201 22.8398 59.5816L16.8187 64.3904C17.1068 61.8764 17.3516 59.6277 17.5994 57.3819C17.8471 55.1361 18.0834 52.9307 18.334 50.6186C16.7697 50.8146 15.384 51.0135 13.9925 51.1548C7.67464 51.7919 3.48003 56.4133 3.45699 62.7874C3.45699 67.4001 3.45699 72.0042 3.45699 76.5996C3.45699 76.9455 3.48868 77.2915 3.50596 77.6345H10.2992C10.3265 77.5402 10.3458 77.4438 10.3568 77.3462C10.3568 72.9584 10.3568 68.5706 10.3769 64.1828C10.3769 62.6462 10.3539 61.1528 9.16984 59.9593C10.0053 59.129 10.7659 58.3737 11.61 57.5376ZM84.5633 31.0608C84.8025 28.4344 86.2083 26.7018 88.2624 25.2344C90.542 23.5881 92.1667 21.1885 92.8494 18.4595C93.5321 15.7305 93.2288 12.8479 91.9932 10.321C90.8041 7.79297 88.7668 5.76227 86.2359 4.58232C83.7051 3.40238 80.8408 3.14791 78.1418 3.86321C73.3451 5.15476 70.2769 8.31446 69.306 13.1693C68.3035 18.1625 70.0061 22.3226 74.12 25.3699C75.6498 26.4971 76.8886 27.7512 77.3927 29.6193C77.5195 30.0921 77.5944 30.5793 77.6981 31.0608H84.5633ZM33.3263 93.1188C31.3097 94.0067 29.7914 95.3386 29.5465 97.4633C29.3161 99.4641 29.4976 101.517 29.4976 103.532H41.3698V86.3468H40.1598C32.8308 86.3468 25.5017 86.3468 18.1727 86.3468C17.3343 86.3468 16.7322 86.439 16.2338 87.2751C15.8069 87.8933 15.2313 88.394 14.56 88.7309C13.9608 89.0682 13.7995 89.443 13.8052 90.0888C13.8312 94.295 13.8052 98.5041 13.8052 102.71C13.8052 102.999 13.834 103.264 13.8484 103.558H25.8705C25.8705 101.695 25.9771 99.8936 25.8417 98.112C25.689 96.1257 24.6202 94.6208 22.883 93.6175C22.5949 93.4445 22.278 93.2802 21.9294 93.0899C22.2895 92.0204 22.6266 91.0142 22.9867 89.9475C24.963 90.5385 26.3747 91.7638 27.6307 93.2716C28.8897 91.7119 30.3042 90.5472 32.2402 89.9418C32.6118 91.0027 32.9518 92.0059 33.3263 93.1188ZM37.7917 20.7284C36.4117 20.7284 35.0145 20.7284 33.6144 20.7284C29.1519 20.7211 24.733 19.8498 20.6013 18.1625C18.8728 17.4591 18.262 17.7099 17.5994 19.4858C17.4067 19.984 17.3005 20.5115 17.2854 21.0455C17.2566 23.9572 17.2162 26.8719 17.2854 29.7836C17.4237 34.9729 21.673 39.3377 26.8615 39.6952C32.1566 40.0584 37.1003 36.3827 37.7082 31.1559C38.1115 27.7656 37.7917 24.2917 37.7917 20.7284ZM13.7966 20.5986C13.8571 20.3103 13.9233 19.999 13.9838 19.6847C14.1907 18.4369 14.702 17.2595 15.4724 16.2567C16.2427 15.254 17.2484 14.4569 18.4003 13.9362C18.5666 13.8555 18.7472 13.8088 18.9318 13.7989C19.1163 13.789 19.3009 13.8161 19.4749 13.8785C24.7757 16.5741 30.4079 17.4879 36.2994 17.2977C37.9761 17.24 39.6557 17.2977 41.4389 17.2977V20.6102L44.2507 21.2444C45.9216 17.7849 44.0836 12.6389 40.6352 11.2147C39.4165 13.4144 37.616 14.8529 35.0577 15.3805C34.6947 14.2792 34.3634 13.2702 34.0148 12.2093L34.9022 11.8778C37.0571 11.0705 38.2757 9.1678 37.9444 7.11804C37.5814 4.92124 35.801 3.4596 33.4185 3.4596C29.7885 3.4596 26.1586 3.43654 22.5286 3.4596C18.0661 3.49131 14.4621 6.52704 13.9522 10.9552C13.7793 12.4399 13.2002 13.4115 12.2467 14.4407C10.4374 16.3953 9.95921 18.7363 10.6938 21.3453L13.7966 20.5986ZM69.8303 43.2123C70.0176 43.417 70.1559 43.5785 70.3057 43.7284C71.7289 45.1525 73.1348 46.5911 74.5896 47.9807C74.8862 48.2159 75.2541 48.343 75.6325 48.3411C77.4993 48.3757 79.3777 48.3584 81.2359 48.3584C84.379 48.3584 84.5604 48.1739 84.5604 44.994C84.5604 41.5345 84.4942 41.4451 80.9881 41.4711C80.2708 41.4711 79.8358 41.2894 79.611 40.6062C79.4837 40.2696 79.3204 39.9477 79.1242 39.6462C78.0093 37.8184 75.7074 37.4003 74.1315 38.8533C72.6565 40.2112 71.3083 41.7046 69.8303 43.2123ZM3.45699 81.1719V89.0048C3.4372 89.3268 3.44491 89.6499 3.48003 89.9706C3.64425 90.9566 4.24636 91.4957 5.24603 91.5187C6.35807 91.5447 7.47298 91.5562 8.58213 91.5187C9.69128 91.4813 10.4662 90.8009 10.3107 89.7515C10.0082 87.6527 10.7371 86.4159 12.7566 85.7384C13.2262 85.5828 13.6208 84.7438 13.7476 84.1528C13.8888 83.4926 11.7511 81.2007 11.0597 81.1892C8.57349 81.1488 6.06997 81.1719 3.45699 81.1719ZM27.6567 75.406C28.7341 74.2701 29.6963 73.3073 30.5837 72.2809C30.8002 71.9683 30.8869 71.5838 30.8257 71.2085C30.0565 66.4286 29.27 61.6544 28.4345 56.889C28.3682 56.5171 27.9131 56.2144 27.6394 55.8771C27.3513 56.2057 26.8903 56.4998 26.827 56.8659C25.9896 61.6323 25.1925 66.4055 24.4358 71.1854C24.3775 71.5927 24.4809 72.0067 24.7239 72.3386C25.5997 73.3303 26.5504 74.2586 27.6567 75.4031V75.406ZM24.1996 42.9817C24.1996 43.6131 23.9115 44.5846 24.2543 45.2102C25.2194 46.9861 26.4438 48.6178 27.6365 50.3995C28.5526 49.0272 29.2844 47.7414 30.2063 46.6084C30.6247 46.1123 30.918 45.5229 31.0613 44.8898C31.2047 44.2567 31.1941 43.5983 31.0302 42.9702L24.1996 42.9817ZM13.7707 31.0204V24.2167C11.682 24.3868 10.3136 25.8311 10.3712 27.7281C10.3916 28.6139 10.7597 29.456 11.396 30.0722C12.0322 30.6883 12.8853 31.029 13.7707 31.0204ZM41.4274 24.2282V31.0291C43.0551 31.2049 44.8413 29.6136 44.8672 27.7108C44.8932 25.8081 43.5017 24.3609 41.4361 24.2167L41.4274 24.2282ZM21.1688 56.5055L25.3087 53.193L22.2924 48.6553L22.0389 48.7447C21.7594 51.2413 21.48 53.7379 21.1688 56.5055ZM29.9355 53.193L34.0753 56.494C33.7613 53.7264 33.4761 51.2009 33.1563 48.3641L29.9355 53.193ZM84.4913 34.5953H77.8652C78.6833 34.9785 79.4805 35.4048 80.2535 35.8724C81.0053 36.4313 81.7283 37.0279 82.4199 37.6598C83.6587 37.2533 84.4308 36.2414 84.4913 34.5953Z" fill="#A5BDDA"/>
</svg>
